<svg width="352" height="340" viewBox="0 0 352 340" fill="none" xmlns="http://www.w3.org/2000/svg">
<path d="M326.923 66.2252C340.511 86.0433 337.504 111.716 337.504 111.716C337.504 111.716 312.466 105.258 298.878 85.4396C285.29 65.6215 288.297 39.9485 288.297 39.9485C288.297 39.9485 313.335 46.4071 326.923 66.2252Z" fill="#2F2E41"/>
<path d="M317.146 70.0093C318.736 93.9829 336.988 112.293 336.988 112.293C336.988 112.293 352.662 91.7345 351.071 67.761C349.481 43.7874 331.23 25.4772 331.23 25.4772C331.23 25.4772 315.556 46.0358 317.146 70.0093Z" fill="#25D366"/>
<path d="M161.136 0.494211L345.623 93.2118C347.157 93.9827 348.429 95.1889 349.28 96.6794C350.132 98.1698 350.524 99.8782 350.408 101.591L339.69 260.299C339.642 261.011 339.418 261.7 339.039 262.305C338.659 262.909 338.136 263.41 337.516 263.763C336.896 264.116 336.198 264.31 335.484 264.328C334.771 264.346 334.064 264.186 333.427 263.865L144.733 167.602L154.42 4.36313C154.466 3.59634 154.701 2.85285 155.105 2.19944C155.509 1.54603 156.069 1.00316 156.735 0.619596C157.401 0.236027 158.151 0.0237679 158.919 0.00188298C159.688 -0.020002 160.449 0.149172 161.136 0.494211Z" fill="#D0CDE1"/>
<path d="M163.259 3.72835L343.215 94.1686C344.711 94.9205 345.952 96.0971 346.782 97.5509C347.613 99.0048 347.995 100.671 347.883 102.341L337.427 257.152C337.38 257.846 337.162 258.518 336.792 259.108C336.422 259.697 335.912 260.186 335.307 260.531C334.702 260.875 334.021 261.064 333.325 261.082C332.629 261.099 331.94 260.944 331.318 260.63L147.259 166.731L156.708 7.50224C156.753 6.75428 156.982 6.02905 157.376 5.39169C157.771 4.75433 158.317 4.2248 158.966 3.85065C159.616 3.47651 160.348 3.26946 161.097 3.24811C161.846 3.22677 162.589 3.39178 163.259 3.72835Z" fill="#3F3D56"/>
<path d="M171.145 15.7409L334.27 97.7222C335.626 98.4039 336.751 99.4704 337.504 100.788C338.257 102.106 338.604 103.617 338.501 105.131L329.024 245.462C328.981 246.091 328.784 246.701 328.448 247.235C328.113 247.769 327.65 248.212 327.102 248.525C326.554 248.837 325.936 249.008 325.306 249.024C324.675 249.04 324.05 248.899 323.486 248.614L156.642 163.498L165.208 19.1618C165.248 18.4838 165.456 17.8264 165.813 17.2487C166.17 16.6709 166.666 16.1909 167.254 15.8517C167.843 15.5126 168.507 15.3249 169.186 15.3056C169.865 15.2862 170.538 15.4358 171.145 15.7409Z" fill="white"/>
<path d="M2.8254 245.696L187.548 338.689C189.267 339.553 191.165 340.002 193.09 340C195.014 339.997 196.911 339.544 198.627 338.675L335.28 269.332C336.883 267.73 336.659 265.357 336.147 263.575C335.898 262.712 335.559 261.878 335.136 261.085L316.514 251.295L159.948 173.208L150.594 168.244C148.117 166.933 145.36 166.242 142.557 166.231C139.755 166.219 136.992 166.888 134.505 168.179L2.76761 236.584C1.92946 237.017 1.22754 237.673 0.739495 238.481C0.251453 239.288 -0.00368263 240.214 0.00230012 241.158C0.00828287 242.101 0.275162 243.024 0.773405 243.825C1.27165 244.626 1.98183 245.273 2.8254 245.696Z" fill="#D0CDE1"/>
<path opacity="0.1" d="M2.82539 245.696L187.548 338.69C189.267 339.554 191.165 340.002 193.09 340C195.014 339.997 196.911 339.544 198.627 338.675L335.28 269.332C336.883 267.731 336.659 265.357 336.147 263.575L199.902 334.364C198.239 335.228 196.396 335.687 194.523 335.703C192.649 335.719 190.798 335.292 189.121 334.457L0.0681825 240.307C-0.109553 241.382 0.0623536 242.485 0.558648 243.455C1.05494 244.425 1.84944 245.211 2.82539 245.696Z" fill="black"/>
<path opacity="0.1" d="M178.157 273.559L118.334 243.34C117.13 242.732 115.797 242.422 114.447 242.437C113.098 242.453 111.772 242.793 110.582 243.428L75.8783 261.961C75.4773 262.175 75.1429 262.495 74.9114 262.887C74.68 263.278 74.5604 263.725 74.5658 264.179C74.5712 264.634 74.7013 265.078 74.9419 265.463C75.1825 265.849 75.5244 266.161 75.9303 266.366L136.926 297.112C137.939 297.623 139.062 297.876 140.196 297.85C141.33 297.824 142.44 297.519 143.428 296.963L178.27 277.341C178.61 277.15 178.89 276.869 179.082 276.53C179.274 276.191 179.369 275.805 179.357 275.416C179.346 275.026 179.228 274.647 179.016 274.32C178.804 273.993 178.507 273.73 178.157 273.559Z" fill="black"/>
<path opacity="0.1" d="M319.049 268.505L254.674 302.691C253.933 303.084 253.109 303.294 252.27 303.302C251.431 303.311 250.603 303.118 249.854 302.739L67.9679 210.794C67.4554 210.535 67.0252 210.139 66.7254 209.649C66.4257 209.159 66.2682 208.596 66.2707 208.022C66.2731 207.448 66.4354 206.886 66.7394 206.398C67.0434 205.911 67.477 205.519 67.9917 205.264L130.855 174.162C131.803 173.693 132.846 173.451 133.903 173.455C134.96 173.458 136.002 173.708 136.946 174.183L319.02 265.885C319.262 266.007 319.465 266.193 319.609 266.422C319.752 266.652 319.829 266.916 319.832 267.187C319.835 267.457 319.763 267.723 319.625 267.955C319.487 268.188 319.288 268.378 319.049 268.505Z" fill="black"/>
<path d="M216.349 98.0153L216.027 98.6607L275.212 128.242L275.535 127.597L216.349 98.0153Z" fill="#25D366"/>
<path d="M216.344 106.691L216.016 107.333L275.217 137.604L275.546 136.962L216.344 106.691Z" fill="#25D366"/>
<path d="M227.181 123.265L226.853 123.907L260.772 141.232L261.1 140.59L227.181 123.265Z" fill="#25D366"/>
<path d="M161.255 55.177L156.027 67.6057L200.152 90.7584L215.018 47.2717" fill="#F2F2F2"/>
<path d="M199.135 83.133L218.628 37.2834L173.826 15.2454L155.01 59.9802L199.135 83.133Z" fill="#25D366"/>
<path d="M172.767 32.7786L172.438 33.4212L206.357 50.7458L206.686 50.1032L172.767 32.7786Z" fill="white"/>
<path d="M170.224 38.8787L169.896 39.5213L203.814 56.8459L204.143 56.2033L170.224 38.8787Z" fill="white"/>
</svg>
