<svg width="181" height="329" viewBox="0 0 181 329" fill="none" xmlns="http://www.w3.org/2000/svg">
<path d="M169.609 0H11.3914C5.1001 0 0 5.09467 0 11.3793V317.621C0 323.905 5.1001 329 11.3914 329H169.609C175.9 329 181 323.905 181 317.621V11.3793C181 5.09467 175.9 0 169.609 0Z" fill="url(#paint0_linear)"/>
<path d="M165.44 4.57837H15.5601C9.2688 4.57837 4.1687 9.67304 4.1687 15.9576V309.973C4.1687 316.258 9.2688 321.352 15.5601 321.352H165.44C171.731 321.352 176.831 316.258 176.831 309.973V15.9576C176.831 9.67304 171.731 4.57837 165.44 4.57837Z" fill="white"/>
<path d="M157.337 26.9688H23.6626V284.758H157.337V26.9688Z" fill="#25D366"/>
<path d="M90.5 314.253C96.3868 314.253 101.159 309.362 101.159 303.329C101.159 297.296 96.3868 292.405 90.5 292.405C84.6133 292.405 79.8411 297.296 79.8411 303.329C79.8411 309.362 84.6133 314.253 90.5 314.253Z" fill="#DBDBDB"/>
<path d="M70.2506 17.1402C71.4285 17.1402 72.3834 16.1617 72.3834 14.9546C72.3834 13.7475 71.4285 12.7689 70.2506 12.7689C69.0728 12.7689 68.1179 13.7475 68.1179 14.9546C68.1179 16.1617 69.0728 17.1402 70.2506 17.1402Z" fill="#DBDBDB"/>
<path d="M112.191 13.3165H80.532C80.1504 13.3165 79.8411 13.6255 79.8411 14.0067V15.9025C79.8411 16.2837 80.1504 16.5927 80.532 16.5927H112.191C112.573 16.5927 112.882 16.2837 112.882 15.9025V14.0067C112.882 13.6255 112.573 13.3165 112.191 13.3165Z" fill="#DBDBDB"/>
<defs>
<linearGradient id="paint0_linear" x1="90.5" y1="329" x2="90.5" y2="0" gradientUnits="userSpaceOnUse">
<stop offset="0.01" stop-color="#808080" stop-opacity="0.25"/>
<stop offset="0.54" stop-color="#808080" stop-opacity="0.12"/>
<stop offset="1" stop-color="#808080" stop-opacity="0.1"/>
</linearGradient>
</defs>
</svg>
